<svg width="129" height="31" viewBox="0 0 129 31" fill="none" xmlns="http://www.w3.org/2000/svg">
<path d="M24.6094 8.824C25.3934 8.824 26.2474 9.09 27.1714 9.622C28.1234 10.154 28.5994 10.714 28.5994 11.302C28.5994 11.89 28.1234 13.878 27.1714 17.266C26.2194 20.654 24.7214 23.706 22.6774 26.422C20.6614 29.11 19.1634 30.454 18.1834 30.454C17.7914 30.454 17.2034 30.174 16.4194 29.614C15.6354 29.054 15.0754 28.424 14.7394 27.724C14.1514 26.576 13.8574 23.216 13.8574 17.644C12.6534 21.564 11.2814 24.686 9.74138 27.01C8.20138 29.306 6.95538 30.454 6.00338 30.454C5.58338 30.454 4.96738 30.174 4.15538 29.614C3.37138 29.054 2.86738 28.494 2.64338 27.934C2.02738 26.422 1.43938 23.538 0.879375 19.282C0.319375 15.026 0.0393751 12.114 0.0393751 10.546C0.0393751 9.398 0.431375 8.824 1.21538 8.824C2.27938 8.824 3.37138 9.468 4.49138 10.756C5.61138 12.044 6.17138 13.052 6.17138 13.78C6.17138 17.84 6.21338 21.074 6.29738 23.482C7.41738 21.774 8.42538 19.646 9.32138 17.098C10.2454 14.55 10.9874 12.534 11.5474 11.05C12.1074 9.566 12.6954 8.824 13.3114 8.824C14.5434 8.824 15.7614 9.426 16.9654 10.63C18.1694 11.806 18.7714 13.01 18.7714 14.242C18.7714 14.802 18.6734 15.964 18.4774 17.728C18.3094 19.492 18.2254 20.822 18.2254 21.718C18.2254 22.614 18.2814 23.356 18.3934 23.944C19.3174 23.02 20.1154 21.662 20.7874 19.87C21.4874 18.078 21.9914 16.384 22.2994 14.788C23.0834 10.812 23.8534 8.824 24.6094 8.824ZM48.0437 16.678C48.0437 18.05 47.1057 19.282 45.2297 20.374C43.3817 21.466 41.4777 22.012 39.5177 22.012C37.5577 22.012 35.9477 21.872 34.6877 21.592C34.4357 22.348 34.3097 23.104 34.3097 23.86C34.3097 24.616 34.4357 25.162 34.6877 25.498C34.9397 25.806 35.5697 25.96 36.5777 25.96C38.6777 25.96 40.4697 25.764 41.9537 25.372C43.4657 24.98 44.2497 24.784 44.3057 24.784C45.4537 24.784 46.0277 25.162 46.0277 25.918C46.0277 27.01 45.1177 28.046 43.2977 29.026C41.5057 30.006 39.4197 30.496 37.0397 30.496C34.6877 30.496 32.7977 29.754 31.3697 28.27C29.9417 26.786 29.2277 25.036 29.2277 23.02C29.2277 20.976 29.8157 18.848 30.9917 16.636C32.1957 14.424 33.6937 12.576 35.4857 11.092C37.2777 9.58 39.0557 8.824 40.8197 8.824C42.6117 8.824 44.2637 9.706 45.7757 11.47C47.2877 13.206 48.0437 14.942 48.0437 16.678ZM43.1717 16.006C43.1717 15.726 42.8777 15.32 42.2897 14.788C41.7017 14.256 41.1417 13.99 40.6097 13.99C40.1057 13.99 39.4477 14.368 38.6357 15.124C37.8237 15.852 37.0537 16.804 36.3257 17.98C36.5777 18.008 36.9417 18.022 37.4177 18.022C41.2537 18.022 43.1717 17.35 43.1717 16.006ZM64.4355 8.824C65.1635 8.824 65.8635 9.09 66.5355 9.622C67.2355 10.126 67.5855 10.658 67.5855 11.218C67.5855 12.226 66.7455 14.564 65.0655 18.232C63.4135 21.9 61.8735 24.854 60.4455 27.094C59.0455 29.334 57.9535 30.454 57.1695 30.454C56.7495 30.454 56.1335 30.174 55.3215 29.614C54.5375 29.054 54.0335 28.494 53.8095 27.934C53.1375 26.31 52.3255 23.314 51.3735 18.946C50.4215 14.55 49.9455 11.764 49.9455 10.588C49.9455 9.412 50.3375 8.824 51.1215 8.824C52.0735 8.824 53.0535 9.202 54.0615 9.958C55.7415 11.246 56.6795 12.968 56.8755 15.124C56.9595 16.132 57.0295 17.378 57.0855 18.862C57.1415 20.318 57.2675 21.578 57.4635 22.642C58.1355 21.354 58.9615 19.45 59.9415 16.93C60.9215 14.382 61.7615 12.394 62.4615 10.966C63.1895 9.538 63.8475 8.824 64.4355 8.824ZM71.5703 3.574C71.5703 2.846 71.8923 2.104 72.5363 1.348C73.2083 0.563999 73.8523 0.171999 74.4683 0.171999C75.1123 0.171999 75.8683 0.927999 76.7363 2.44C77.6043 3.952 78.0383 5.058 78.0383 5.758C78.0383 6.43 77.8143 6.948 77.3663 7.312C76.9183 7.676 76.4563 7.858 75.9803 7.858C75.1683 7.858 74.2303 7.326 73.1663 6.262C72.1023 5.198 71.5703 4.302 71.5703 3.574ZM72.2003 8.824C73.1803 8.824 74.0483 9.384 74.8043 10.504C75.5883 11.624 75.9803 12.702 75.9803 13.738C75.9803 14.27 75.4903 16.188 74.5103 19.492C73.5583 22.768 72.6063 25.876 71.6543 28.816C71.3183 29.908 70.6323 30.454 69.5963 30.454C68.9803 30.454 68.4343 30.23 67.9583 29.782C67.5103 29.306 67.2863 28.704 67.2863 27.976C67.2863 27.22 67.6363 25.372 68.3363 22.432C69.0643 19.464 69.6103 16.944 69.9743 14.872C70.3663 12.772 70.7163 11.246 71.0243 10.294C71.3603 9.314 71.7523 8.824 72.2003 8.824ZM97.1805 16.678C97.1805 18.05 96.2425 19.282 94.3665 20.374C92.5185 21.466 90.6145 22.012 88.6545 22.012C86.6945 22.012 85.0845 21.872 83.8245 21.592C83.5725 22.348 83.4465 23.104 83.4465 23.86C83.4465 24.616 83.5725 25.162 83.8245 25.498C84.0765 25.806 84.7065 25.96 85.7145 25.96C87.8145 25.96 89.6065 25.764 91.0905 25.372C92.6025 24.98 93.3865 24.784 93.4425 24.784C94.5905 24.784 95.1645 25.162 95.1645 25.918C95.1645 27.01 94.2545 28.046 92.4345 29.026C90.6425 30.006 88.5565 30.496 86.1765 30.496C83.8245 30.496 81.9345 29.754 80.5065 28.27C79.0785 26.786 78.3645 25.036 78.3645 23.02C78.3645 20.976 78.9525 18.848 80.1285 16.636C81.3325 14.424 82.8305 12.576 84.6225 11.092C86.4145 9.58 88.1925 8.824 89.9565 8.824C91.7485 8.824 93.4005 9.706 94.9125 11.47C96.4245 13.206 97.1805 14.942 97.1805 16.678ZM92.3085 16.006C92.3085 15.726 92.0145 15.32 91.4265 14.788C90.8385 14.256 90.2785 13.99 89.7465 13.99C89.2425 13.99 88.5845 14.368 87.7725 15.124C86.9605 15.852 86.1905 16.804 85.4625 17.98C85.7145 18.008 86.0785 18.022 86.5545 18.022C90.3905 18.022 92.3085 17.35 92.3085 16.006ZM124.072 8.824C124.856 8.824 125.71 9.09 126.634 9.622C127.586 10.154 128.062 10.714 128.062 11.302C128.062 11.89 127.586 13.878 126.634 17.266C125.682 20.654 124.184 23.706 122.14 26.422C120.124 29.11 118.626 30.454 117.646 30.454C117.254 30.454 116.666 30.174 115.882 29.614C115.098 29.054 114.538 28.424 114.202 27.724C113.614 26.576 113.32 23.216 113.32 17.644C112.116 21.564 110.744 24.686 109.204 27.01C107.664 29.306 106.418 30.454 105.466 30.454C105.046 30.454 104.43 30.174 103.618 29.614C102.834 29.054 102.33 28.494 102.106 27.934C101.49 26.422 100.902 23.538 100.342 19.282C99.7823 15.026 99.5023 12.114 99.5023 10.546C99.5023 9.398 99.8943 8.824 100.678 8.824C101.742 8.824 102.834 9.468 103.954 10.756C105.074 12.044 105.634 13.052 105.634 13.78C105.634 17.84 105.676 21.074 105.76 23.482C106.88 21.774 107.888 19.646 108.784 17.098C109.708 14.55 110.45 12.534 111.01 11.05C111.57 9.566 112.158 8.824 112.774 8.824C114.006 8.824 115.224 9.426 116.428 10.63C117.632 11.806 118.234 13.01 118.234 14.242C118.234 14.802 118.136 15.964 117.94 17.728C117.772 19.492 117.688 20.822 117.688 21.718C117.688 22.614 117.744 23.356 117.856 23.944C118.78 23.02 119.578 21.662 120.25 19.87C120.95 18.078 121.454 16.384 121.762 14.788C122.546 10.812 123.316 8.824 124.072 8.824Z" fill="#84CB8D"/>
</svg>
