<svg width="36" height="36" viewBox="0 0 36 36" fill="none" xmlns="http://www.w3.org/2000/svg">
<circle cx="18" cy="18" r="18" fill="white"/>
<g clip-path="url(#clip0_381_72)">
<path d="M16.1605 26.6335L16.0387 26.6179L15.952 26.7047C13.5158 29.1409 10.6208 29.6436 7.75 29.7327V29.5128C9.33393 28.6945 10.75 27.2298 10.75 25.5C10.75 25.2581 10.731 25.0214 10.6962 24.7901L10.6797 24.6798L10.5865 24.6185C7.92728 22.8674 6.25 20.2085 6.25 17.25C6.25 12.0491 11.4593 7.75 18 7.75C24.5407 7.75 29.75 12.0491 29.75 17.25C29.75 22.4509 24.5407 26.75 18 26.75C17.3739 26.75 16.7597 26.7102 16.1605 26.6335Z" fill="#FCFCFC" stroke="black" stroke-width="0.5"/>
<path d="M14.6534 19.0682C14.4432 19.0682 14.2628 18.9929 14.1122 18.8423C13.9616 18.6918 13.8864 18.5114 13.8864 18.3011C13.8864 18.0909 13.9616 17.9105 14.1122 17.7599C14.2628 17.6094 14.4432 17.5341 14.6534 17.5341C14.8636 17.5341 15.044 17.6094 15.1946 17.7599C15.3452 17.9105 15.4205 18.0909 15.4205 18.3011C15.4205 18.4403 15.3849 18.5682 15.3139 18.6847C15.2457 18.8011 15.1534 18.8949 15.0369 18.9659C14.9233 19.0341 14.7955 19.0682 14.6534 19.0682ZM17.9581 19.0682C17.7479 19.0682 17.5675 18.9929 17.4169 18.8423C17.2663 18.6918 17.1911 18.5114 17.1911 18.3011C17.1911 18.0909 17.2663 17.9105 17.4169 17.7599C17.5675 17.6094 17.7479 17.5341 17.9581 17.5341C18.1683 17.5341 18.3487 17.6094 18.4993 17.7599C18.6499 17.9105 18.7251 18.0909 18.7251 18.3011C18.7251 18.4403 18.6896 18.5682 18.6186 18.6847C18.5504 18.8011 18.4581 18.8949 18.3416 18.9659C18.228 19.0341 18.1001 19.0682 17.9581 19.0682ZM21.2628 19.0682C21.0526 19.0682 20.8722 18.9929 20.7216 18.8423C20.571 18.6918 20.4957 18.5114 20.4957 18.3011C20.4957 18.0909 20.571 17.9105 20.7216 17.7599C20.8722 17.6094 21.0526 17.5341 21.2628 17.5341C21.473 17.5341 21.6534 17.6094 21.804 17.7599C21.9545 17.9105 22.0298 18.0909 22.0298 18.3011C22.0298 18.4403 21.9943 18.5682 21.9233 18.6847C21.8551 18.8011 21.7628 18.8949 21.6463 18.9659C21.5327 19.0341 21.4048 19.0682 21.2628 19.0682Z" fill="black"/>
</g>
<defs>
<clipPath id="clip0_381_72">
<rect width="24" height="24" fill="white" transform="translate(6 6)"/>
</clipPath>
</defs>
</svg>
