<svg width="36" height="36" viewBox="0 0 36 36" fill="none" xmlns="http://www.w3.org/2000/svg">
<circle cx="18" cy="18" r="18" fill="white"/>
<path d="M25.432 15.752C25.432 16.056 25.304 16.312 25.048 16.52C24.792 16.728 24.512 16.832 24.208 16.832H22.048C21.872 17.104 21.656 17.608 21.4 18.344C21.144 19.08 20.96 19.624 20.848 19.976L22.456 20C22.92 20.016 23.28 20.096 23.536 20.24C23.792 20.368 23.92 20.688 23.92 21.2C23.92 21.552 23.768 21.792 23.464 21.92C23.176 22.048 22.896 22.112 22.624 22.112L21.136 22.088C20.832 22.088 20.456 22.104 20.008 22.136C19.8 22.6 19.64 23.024 19.528 23.408C19.432 23.776 19.28 24.424 19.072 25.352C18.912 25.784 18.496 26 17.824 26C17.648 26 17.464 25.92 17.272 25.76C17.096 25.584 17.008 25.344 17.008 25.04C17.008 24.8 17.04 24.552 17.104 24.296C17.184 24.04 17.296 23.744 17.44 23.408C17.472 23.344 17.536 23.168 17.632 22.88C17.744 22.576 17.824 22.288 17.872 22.016C17.632 21.968 17.36 21.944 17.056 21.944C16.768 21.944 16.384 21.96 15.904 21.992C15.616 22.024 15.408 22.04 15.28 22.04L14.728 23.792L14.32 25.112C14.08 25.704 13.784 26 13.432 26C12.744 26 12.4 25.656 12.4 24.968C12.4 24.104 12.616 23.168 13.048 22.16C12.968 22.176 12.752 22.192 12.4 22.208C12.064 22.224 11.808 22.232 11.632 22.232C11.28 22.232 10.976 22.144 10.72 21.968C10.464 21.792 10.336 21.52 10.336 21.152C10.336 20.912 10.352 20.72 10.384 20.576C10.432 20.416 10.576 20.288 10.816 20.192C11.184 20.064 11.616 20 12.112 20C12.4 20 12.616 20.008 12.76 20.024C12.872 20.024 13.008 20.032 13.168 20.048C13.328 20.048 13.512 20.04 13.72 20.024C13.864 19.72 13.968 19.424 14.032 19.136C14.112 18.832 14.168 18.632 14.2 18.536C14.344 18.008 14.56 17.432 14.848 16.808L14.224 16.832C13.904 16.864 13.64 16.88 13.432 16.88C12.184 16.88 11.56 16.552 11.56 15.896C11.56 15.656 11.632 15.4 11.776 15.128C11.936 14.856 12.176 14.72 12.496 14.72C12.752 14.72 12.952 14.728 13.096 14.744L13.984 14.768C14.528 14.768 15 14.736 15.4 14.672C15.416 14.56 15.528 14.224 15.736 13.664C16.04 12.752 16.208 12.216 16.24 12.056C16.448 11.08 16.784 10.592 17.248 10.592C17.712 10.592 18.016 10.656 18.16 10.784C18.32 10.896 18.4 10.984 18.4 11.048C18.4 11.416 18.36 11.752 18.28 12.056C18.216 12.36 18.136 12.64 18.04 12.896C17.96 13.152 17.904 13.328 17.872 13.424C17.76 13.728 17.64 14.144 17.512 14.672C17.624 14.688 17.784 14.696 17.992 14.696C18.232 14.696 18.424 14.688 18.568 14.672L19.408 14.648C19.76 14.648 20.16 14.664 20.608 14.696C21.008 13.96 21.336 12.96 21.592 11.696C21.688 11.36 21.808 11.128 21.952 11C22.096 10.872 22.336 10.808 22.672 10.808C22.944 10.808 23.152 10.896 23.296 11.072C23.44 11.248 23.512 11.488 23.512 11.792C23.512 12.208 23.424 12.712 23.248 13.304C23.072 13.896 22.888 14.408 22.696 14.84C22.824 14.872 22.96 14.888 23.104 14.888L24.328 14.864C24.632 14.864 24.888 14.944 25.096 15.104C25.32 15.248 25.432 15.464 25.432 15.752ZM19.864 16.76C19.576 16.712 19.304 16.688 19.048 16.688C18.728 16.688 18.408 16.712 18.088 16.76C17.992 16.76 17.816 16.776 17.56 16.808C17.32 16.824 17.096 16.824 16.888 16.808C16.824 17 16.744 17.224 16.648 17.48C16.552 17.736 16.456 17.992 16.36 18.248C15.944 19.304 15.72 19.904 15.688 20.048L17.872 19.976L18.64 19.952C18.96 19.184 19.32 18.248 19.72 17.144L19.864 16.76Z" fill="#7FB77E"/>
</svg>
