<svg width="36" height="36" viewBox="0 0 36 36" fill="none" xmlns="http://www.w3.org/2000/svg">
<circle cx="18" cy="18" r="18" fill="white"/>
<g clip-path="url(#clip0_381_75)">
<path d="M29.256 26.4233L23.571 21.588C22.983 21.0593 22.3545 20.8163 21.8468 20.8395C23.1885 19.2675 23.9993 17.2283 23.9993 14.9993C23.9993 10.029 19.9695 5.99927 14.9993 5.99927C10.029 5.99927 5.99927 10.029 5.99927 14.9993C5.99927 19.9695 10.029 23.9993 14.9993 23.9993C17.2283 23.9993 19.2675 23.1885 20.8395 21.8468C20.8163 22.3545 21.0593 22.983 21.588 23.571L26.4233 29.256C27.2513 30.1755 28.6035 30.2535 29.4285 29.4285C30.2535 28.6035 30.1763 27.2513 29.256 26.4233ZM15 21C11.6865 21 9.00002 18.3135 9.00002 15C9.00002 11.6865 11.6865 9.00002 15 9.00002C18.3135 9.00002 21 11.6865 21 15C21 18.3135 18.3135 21 15 21Z" fill="#248AE9"/>
</g>
<defs>
<clipPath id="clip0_381_75">
<rect width="24" height="24" fill="white" transform="translate(6 6)"/>
</clipPath>
</defs>
</svg>
