<svg width="32" height="32" viewBox="0 0 32 32" fill="none" xmlns="http://www.w3.org/2000/svg">
<rect x="0.25" y="0.25" width="31.5" height="31.5" rx="9.75" fill="#84CB8D" stroke="#84CB8D" stroke-width="0.5"/>
<path d="M25.5432 9.088C25.9512 9.04 26.2632 9.064 26.4792 9.16C27.5112 9.52 27.9912 10.54 27.9192 12.22C27.8952 12.94 27.6792 14.14 27.2712 15.82C26.6712 18.172 26.0352 20.068 25.3632 21.508C24.4992 23.26 23.4912 24.412 22.3392 24.964C21.6912 25.276 20.9472 25.42 20.1072 25.396C18.6912 25.324 17.5632 24.976 16.7232 24.352C16.3392 24.064 16.0752 23.8 15.9312 23.56C15.9072 23.512 15.8832 23.476 15.8592 23.452L15.6432 23.668C15.3552 24.052 14.9952 24.388 14.5632 24.676C14.1312 24.964 13.6992 25.168 13.2672 25.288C13.0512 25.336 12.6792 25.36 12.1512 25.36C11.3352 25.36 10.6632 25.288 10.1352 25.144C8.19123 24.64 7.05123 23.452 6.71523 21.58C6.61923 20.86 6.64323 20.104 6.78723 19.312C6.97923 18.256 7.50723 16.588 8.37123 14.308C8.70723 13.468 8.89923 12.928 8.94723 12.688C9.23523 11.872 9.27123 11.308 9.05523 10.996C8.95923 10.852 8.76723 10.78 8.47923 10.78C7.47123 10.876 6.61923 11.74 5.92323 13.372C5.80323 13.66 5.69523 13.972 5.59923 14.308C5.50323 14.596 5.45523 14.752 5.45523 14.776C5.19123 14.92 4.90323 14.992 4.59123 14.992H3.90723L3.79923 14.884C3.70323 14.788 3.70323 14.56 3.79923 14.2C3.94323 13.768 4.14723 13.24 4.41123 12.616C5.34723 10.744 6.54723 9.604 8.01123 9.196C8.22723 9.148 8.53923 9.124 8.94723 9.124C9.37923 9.124 9.69123 9.148 9.88323 9.196C11.2512 9.58 12.0432 10.372 12.2592 11.572C12.2832 11.812 12.2952 12.052 12.2952 12.292C12.2712 12.724 12.0792 13.42 11.7192 14.38C10.8072 16.78 10.2552 18.52 10.0632 19.6C9.67923 21.856 10.2312 23.188 11.7192 23.596C12.2232 23.74 12.7032 23.74 13.1592 23.596C13.8792 23.332 14.5032 22.684 15.0312 21.652L15.1392 21.4V20.932C15.1392 20.332 15.1872 19.78 15.2832 19.276L16.3632 14.884C17.0112 12.316 17.3952 10.876 17.5152 10.564C17.8992 9.868 18.4752 9.508 19.2432 9.484C19.6272 9.484 19.9512 9.592 20.2152 9.808C20.3352 9.856 20.4432 9.988 20.5392 10.204C20.6592 10.468 20.6592 10.876 20.5392 11.428C20.4432 11.908 20.1432 13.144 19.6392 15.136C18.9432 17.92 18.5712 19.444 18.5232 19.708C18.4752 19.996 18.4512 20.416 18.4512 20.968C18.4512 21.664 18.5352 22.18 18.7032 22.516C19.0872 23.356 19.8192 23.752 20.8992 23.704C21.1632 23.68 21.4512 23.608 21.7632 23.488C22.7952 23.008 23.6832 21.688 24.4272 19.528C24.9792 17.896 25.3272 16.576 25.4712 15.568C25.6152 14.488 25.2192 13.516 24.2832 12.652C24.0432 12.46 23.8752 12.268 23.7792 12.076C23.6832 11.908 23.6232 11.716 23.5992 11.5C23.5992 11.14 23.6712 10.804 23.8152 10.492C24.1752 9.748 24.7512 9.28 25.5432 9.088Z" fill="#F5F7F9"/>
</svg>
